<?xml version="1.0" encoding="UTF-8" standalone="no"?>
<svg
   version="1.2"
   viewBox="0 0 210 297"
   width="210"
   height="297"
   id="svg48"
   sodipodi:docname="Marchio.svg"
   inkscape:version="1.2.2 (732a01da63, 2022-12-09)"
   inkscape:export-filename="marchioP.pdf"
   inkscape:export-xdpi="400"
   inkscape:export-ydpi="400"
   xmlns:inkscape="http://www.inkscape.org/namespaces/inkscape"
   xmlns:sodipodi="http://sodipodi.sourceforge.net/DTD/sodipodi-0.dtd"
   xmlns="http://www.w3.org/2000/svg"
   xmlns:svg="http://www.w3.org/2000/svg">
  <defs
     id="defs52" />
  <sodipodi:namedview
     id="namedview50"
     pagecolor="#ffffff"
     bordercolor="#000000"
     borderopacity="0.25"
     inkscape:showpageshadow="2"
     inkscape:pageopacity="0.0"
     inkscape:pagecheckerboard="0"
     inkscape:deskcolor="#d1d1d1"
     showgrid="false"
     inkscape:zoom="1.8760948"
     inkscape:cx="80.219827"
     inkscape:cy="136.98668"
     inkscape:window-width="1920"
     inkscape:window-height="986"
     inkscape:window-x="-11"
     inkscape:window-y="-11"
     inkscape:window-maximized="1"
     inkscape:current-layer="svg48" />
  <style
     id="style2">.a{fill:#a40}.b{fill:#f95}.c{fill:#f60}.d{fill:#ff7f2a}.e{fill:#241c1c}</style>
  <path
     class="a"
     d="m 167.73071,175.02234 c 0,4.2 -1.6,8.4 -4.8,12.2 -3.1,3.9 -7.7,7.5 -13.5,10.5 -5.8,2.9 -12.7,5.3 -20.3,7 -7.6,1.6 -15.8,2.5 -24.1,2.6 -8.199999,0.1 -16.499999,-0.7 -24.199999,-2.2 -7.7,-1.5 -14.8,-3.8 -20.8,-6.7 -6,-2.9 -10.8,-6.3 -14.2,-10.2 -3.4,-3.8 -5.3,-7.9 -5.5,-12.1 -0.3,-4.2 1,-8.4 3.9,-12.3 2.9,-4 7.2,-7.6 12.8,-10.7 5.6,-3.1 12.4,-5.6 19.8,-7.3 7.5,-1.8 15.6,-2.9 23.899999,-3.1 8.3,-0.2 16.6,0.4 24.4,1.8 7.8,1.4 15,3.5 21.2,6.3 6.2,2.8 11.2,6.2 14.9,10 3.6,3.7 5.8,7.8 6.3,12"
     id="path4" />
  <path
     class="b"
     d="m 70.730711,170.72234 c 0,1.9 0,3.8 -0.2,5.5 -0.1,1.8 -0.4,3.4 -0.7,4.8 -0.2,1.3 -0.6,2.4 -1,3.2 q -0.5,1.1 -1.1,1.2 -0.6,0 -1.2,-1 -0.6,-1.1 -1,-3.1 c -0.3,-1.3 -0.6,-2.9 -0.7,-4.6 -0.2,-1.8 -0.3,-3.6 -0.3,-5.5 0,-1.9 0.1,-3.9 0.2,-5.6 0.1,-1.8 0.3,-3.5 0.6,-4.9 0.3,-1.4 0.6,-2.5 1,-3.3 q 0.5,-1.3 1.2,-1.4 0.6,-0.2 1.2,0.8 0.5,1 1,2.9 c 0.3,1.2 0.5,2.8 0.7,4.5 0.2,1.7 0.3,3.6 0.3,5.5"
     id="path6" />
  <path
     class="b"
     d="m 100.13071,170.22234 c 0,2.6 0,5.1 -0.199999,7.5 -0.2,2.4 -0.4,4.5 -0.7,6.4 -0.2,1.8 -0.6,3.3 -1,4.3 q -0.5,1.5 -1.1,1.6 -0.6,0.1 -1.2,-1.3 c -0.4,-1 -0.7,-2.4 -1,-4.1 -0.3,-1.8 -0.6,-3.9 -0.7,-6.3 -0.2,-2.3 -0.3,-4.9 -0.3,-7.4 0,-2.6 0,-5.2 0.2,-7.6 0.1,-2.4 0.3,-4.6 0.6,-6.5 0.3,-1.9 0.6,-3.5 1,-4.6 q 0.5,-1.6 1.2,-1.8 0.6,-0.2 1.1,1.1 c 0.4,0.8 0.8,2.1 1.1,3.9 0.3,1.7 0.5,3.7 0.7,6 0.199999,2.4 0.299999,4.9 0.299999,7.4"
     id="path8" />
  <path
     class="b"
     d="m 85.130711,170.82234 c 0,2.4 -0.1,4.7 -0.2,7 -0.2,2.2 -0.4,4.2 -0.7,5.9 -0.3,1.7 -0.6,3.1 -1,4 q -0.5,1.4 -1.1,1.5 -0.7,0 -1.2,-1.3 c -0.4,-0.8 -0.8,-2.1 -1,-3.8 -0.3,-1.6 -0.6,-3.6 -0.7,-5.8 -0.2,-2.2 -0.3,-4.5 -0.3,-6.9 0,-2.4 0,-4.8 0.2,-7 0.1,-2.3 0.3,-4.3 0.6,-6.1 0.3,-1.7 0.6,-3.2 1,-4.2 q 0.5,-1.5 1.1,-1.7 0.7,-0.2 1.2,1 c 0.4,0.8 0.8,2 1.1,3.6 0.3,1.6 0.5,3.5 0.7,5.7 0.2,2.1 0.3,4.4 0.3,6.8"
     id="path10" />
  <path
     class="b"
     d="m 115.13071,171.02234 c 0,2.5 0,5.1 -0.2,7.4 -0.1,2.4 -0.4,4.5 -0.7,6.3 -0.2,1.9 -0.6,3.3 -0.9,4.3 q -0.6,1.5 -1.2,1.6 -0.6,0.1 -1.2,-1.3 c -0.4,-1 -0.7,-2.3 -1,-4.1 -0.3,-1.7 -0.6,-3.8 -0.7,-6.2 -0.2,-2.3 -0.3,-4.8 -0.3,-7.3 0,-2.6 0.1,-5.1 0.2,-7.5 0.1,-2.4 0.4,-4.6 0.6,-6.5 0.3,-1.8 0.6,-3.3 1,-4.4 q 0.6,-1.7 1.2,-1.9 0.6,-0.2 1.2,1.1 c 0.3,0.9 0.7,2.2 1,3.8 0.3,1.7 0.5,3.8 0.7,6.1 0.2,2.3 0.3,4.7 0.3,7.3"
     id="path12" />
  <path
     class="b"
     d="m 130.33071,170.82234 c 0,2.3 -0.1,4.5 -0.2,6.6 -0.2,2.1 -0.4,4.1 -0.7,5.7 -0.3,1.6 -0.6,2.9 -1,3.8 q -0.5,1.3 -1.2,1.4 -0.6,0 -1.1,-1.2 c -0.4,-0.8 -0.8,-2 -1.1,-3.6 -0.3,-1.6 -0.5,-3.4 -0.7,-5.5 -0.1,-2.1 -0.2,-4.3 -0.2,-6.6 0,-2.3 0,-4.5 0.2,-6.6 0.1,-2.2 0.3,-4.1 0.6,-5.8 0.3,-1.7 0.6,-3 1,-4 q 0.5,-1.5 1.1,-1.6 0.6,-0.2 1.2,0.9 c 0.4,0.8 0.8,1.9 1.1,3.5 0.3,1.5 0.5,3.3 0.7,5.3 0.2,2.1 0.3,4.3 0.3,6.5"
     id="path14" />
  <path
     class="b"
     d="m 143.33071,171.12234 c 0,1.8 -0.1,3.5 -0.3,5.2 -0.1,1.6 -0.3,3.1 -0.6,4.3 q -0.5,1.9 -1,3 -0.6,1.1 -1.2,1.1 -0.6,0 -1.2,-0.9 -0.6,-1 -1,-2.8 c -0.3,-1.3 -0.5,-2.7 -0.7,-4.3 -0.2,-1.6 -0.3,-3.4 -0.3,-5.1 0,-1.8 0.1,-3.6 0.2,-5.2 0.2,-1.7 0.4,-3.2 0.6,-4.5 q 0.5,-1.9 1,-3.1 0.6,-1.1 1.2,-1.3 0.6,-0.1 1.2,0.8 0.6,0.9 1,2.6 c 0.3,1.2 0.6,2.6 0.7,4.2 0.2,1.6 0.3,3.3 0.4,5.1"
     id="path16" />
  <path
     id="path28"
     class="d"
     d="m 122.16193,141.22995 -5,-0.7 c 0,0 -0.5,-0.2 3.6,-27.7 z m -5.5,-91.800002 c 1.2,0 2.7,1 3.5,2.7 0.9,1.9 1.2,4.7 0.8,7.2 -1.5,0.8 -3.1,0 -4.1,-2.1 l -0.2,-0.3 c -0.7,-1.6 -1.3,-3.2 -1.2,-5.1 0.1,-1.3 -1.7,-9.1 -2.1,-10.8 0.3,0.5 2.9,8.400001 3.3,8.4 z m 10.3,2.5 c 0.1,1.9 -0.5,3.6 -1.2,5.1 l -0.2,0.4 c -1,2 -2.6,2.8 -4.1,2 -0.4,-2.5 -0.1,-5.2 0.9,-7.2 0.7,-1.6 2.2,-2.7 3.4,-2.7 0.4,0 3,-7.9 3.3,-8.4 -0.4,1.7 -2.2,9.5 -2.1,10.8 z m -11,7.3 c 1.3,0 3,1.3 3.9,3.4 1.1,2.4 1.5,5.900002 1,9.000002 -1.7,0.9 -3.5,-0.1 -4.7,-2.6 l -0.2,-0.4 c -0.8,-2 -1.5,-4.000002 -1.3,-6.400002 0.1,-1.6 -2,-11.3 -2.5,-13.4 0.5,0.6 3.4,10.4 3.8,10.4 z m 11.7,3.2 c 0.1,2.4 -0.6,4.400002 -1.4,6.300002 l -0.2,0.5 c -1.1,2.5 -2.9,3.5 -4.6,2.6 -0.5,-3.1 -0.2,-6.600002 0.9,-9.100002 0.9,-2 2.6,-3.3 3.9,-3.3 0.5,0 3.4,-9.8 3.8,-10.5 -0.5,2.2 -2.5,11.9 -2.4,13.5 z m -11.8,9.200002 c 1.3,0 3,1.3 4,3.4 1.1,2.5 1.4,5.9 0.9,9.1 -1.7,0.9 -3.5,-0.1 -4.7,-2.6 l -0.3,-0.5 c -0.8,-1.9 -1.5,-4 -1.3,-6.4 0.1,-1.6 -2,-11.400002 -2.5,-13.500002 0.4,0.6 3.4,10.500002 3.9,10.500002 z m 11.9,3.2 c 0.1,2.4 -0.6,4.4 -1.4,6.4 l -0.2,0.4 c -1.2,2.6 -3,3.6 -4.7,2.6 -0.6,-3.1 -0.2,-6.6 0.9,-9.1 0.9,-2 2.7,-3.3 4,-3.3 0.4,0 3.5,-9.900002 3.9,-10.500002 -0.5,2.1 -2.6,11.900002 -2.5,13.500002 z m -12.3,9.1 c 1.5,0 3.3,1.5 4.3,3.9 1.2,3 1.5,7 1,10.7 -1.8,1.1 -3.8,-0.1 -5,-3 l -0.3,-0.6 c -0.8,-2.2 -1.6,-4.6 -1.4,-7.5 0.1,-1.8 -2.1,-13.4 -2.7,-15.9 0.5,0.8 3.7,12.4 4.1,12.4 z m 12.7,3.7 c 0.1,2.9 -0.6,5.3 -1.5,7.5 l -0.2,0.6 c -1.3,2.9 -3.2,4.1 -5,3 -0.6,-3.7 -0.2,-7.7 1,-10.7 0.9,-2.4 2.8,-3.9 4.2,-3.9 0.5,0 3.7,-11.6 4.1,-12.4 -0.5,2.5 -2.7,14.1 -2.6,15.9 z m -13.2,9.6 c 1.5,0 3.5,1.6 4.5,4.2 1.3,3.1 1.7,7.4 1.1,11.3 -2,1.1 -4,-0.1 -5.4,-3.3 l -0.2,-0.6 c -0.9,-2.3 -1.7,-4.9 -1.6,-7.9 0.1,-1.9 -2.2,-14.1 -2.8,-16.7 0.5,0.8 3.9,13 4.4,13 z m 13.5,3.9 c 0.1,3 -0.7,5.6 -1.6,7.9 l -0.2,0.6 c -1.4,3.2 -3.5,4.4 -5.4,3.3 -0.6,-3.9 -0.2,-8.2 1.1,-11.3 1,-2.6 3,-4.2 4.5,-4.2 0.5,0 3.9,-12.2 4.4,-13 -0.6,2.6 -3,14.8 -2.8,16.7 z" />
  <path
     class="d"
     d=""
     id="path30" />
  <path
     id="path42"
     class="d"
     d="m 86.184257,112.32994 c 4.1,27.4 3.6,27.7 3.6,27.7 l -5.1,0.6 z m 7.5,-70.399996 c -0.4,1.7 -2.2,9.5 -2.1,10.8 0.1,1.9 -0.5,3.5 -1.2,5.1 l -0.2,0.4 c -1,2 -2.6,2.8 -4.1,2 -0.4,-2.5 -0.1,-5.2 0.8,-7.2 0.8,-1.7 2.3,-2.7 3.5,-2.7 0.4,0 3,-7.9 3.3,-8.4 z m -15.699999,0.1 c 0.3,0.5 2.9,8.4 3.3,8.4 1.2,0 2.699999,1.1 3.499999,2.7 0.9,2 1.2,4.8 0.8,7.3 -1.5,0.7 -3.099999,-0.1 -4.099999,-2.1 l -0.2,-0.4 c -0.7,-1.5 -1.3,-3.2 -1.2,-5.1 0.1,-1.2 -1.7,-9.1 -2.1,-10.8 z m 16.899999,7.7 c -0.5,2.1 -2.6,11.9 -2.5,13.4 0.2,2.4 -0.5,4.5 -1.3,6.4 l -0.2,0.4 c -1.2,2.6 -3,3.5 -4.7,2.6 -0.5,-3.1 -0.1,-6.5 1,-9 0.9,-2.1 2.6,-3.4 3.9,-3.4 0.4,0 3.4,-9.8 3.8,-10.4 z m -17.899999,0.1 c 0.4,0.7 3.3,10.5 3.8,10.5 1.3,0 3,1.3 3.899999,3.4 1.1,2.4 1.4,5.9 0.9,9 -1.7,0.9 -3.399999,-0.1 -4.599999,-2.6 l -0.2,-0.5 c -0.8,-1.9 -1.5,-3.9 -1.4,-6.3 0.1,-1.6 -1.9,-11.3 -2.4,-13.5 z m 18.099999,12.2 c -0.5,2.1 -2.6,11.9 -2.5,13.5 0.2,2.4 -0.5,4.5 -1.3,6.4 l -0.3,0.5 c -1.2,2.5 -3,3.5 -4.7,2.6 -0.5,-3.2 -0.2,-6.6 0.9,-9.1 1,-2.1 2.7,-3.4 4.1,-3.4 0.4,0 3.4,-9.9 3.8,-10.5 z m -18.299999,0.2 c 0.4,0.6 3.5,10.5 3.9,10.5 1.3,0 3.1,1.3 3.999999,3.4 1.1,2.4 1.5,5.9 0.9,9.1 -1.7,0.9 -3.499999,-0.1 -4.699999,-2.7 l -0.2,-0.4 c -0.8,-1.9 -1.5,-4 -1.4,-6.4 0.1,-1.6 -2,-11.4 -2.5,-13.5 z m 18.899999,10.2 c -0.6,2.6 -2.8,14.1 -2.7,15.9 0.2,2.90001 -0.6,5.3 -1.4,7.5 l -0.2,0.6 c -1.3,3 -3.3,4.099996 -5.1,3.1 -0.5,-3.7 -0.2,-7.8 1,-10.7 1,-2.4 2.8,-4 4.3,-4 0.4,0 3.6,-11.6 4.1,-12.4 z m -19.399999,0.2 c 0.4,0.8 3.6,12.4 4.1,12.4 1.4,0 3.3,1.5 4.199999,4.00001 1.2,2.89999 1.6,6.99999 1,10.59999 -1.799999,1.099996 -3.699999,0 -4.999999,-3 l -0.2,-0.6 c -0.9,-2.2 -1.6,-4.59999 -1.5,-7.5 0.1,-1.8 -2.1,-13.3 -2.6,-15.9 z m 20.199999,12.5 c -0.6,2.6 -2.9,14.8 -2.8,16.799996 0.1,2.9 -0.6,5.5 -1.6,7.9 l -0.2,0.5 c -1.4,3.2 -3.4,4.4 -5.4,3.3 -0.6,-3.9 -0.2,-8.2 1.1,-11.3 1,-2.499996 3,-4.199996 4.5,-4.199996 0.5,0 3.9,-12.2 4.4,-13 z m -20.699999,0.2 c 0.5,0.8 3.9,13 4.4,13 1.5,0 3.5,1.699996 4.499999,4.199996 1.3,3.1 1.7,7.4 1.1,11.3 -1.9,1.1 -3.999999,-0.1 -5.399999,-3.3 l -0.2,-0.5 c -0.9,-2.4 -1.7,-5 -1.5,-7.9 0.1,-2 -2.3,-14.199996 -2.9,-16.799996 z" />
  <path
     class="d"
     d=""
     id="path44" />
  <text
     xml:space="preserve"
     style="font-style:normal;font-variant:normal;font-weight:normal;font-stretch:normal;font-size:17.8738px;font-family:'Goudy Stout';-inkscape-font-specification:'Goudy Stout, Normal';font-variant-ligatures:normal;font-variant-caps:normal;font-variant-numeric:normal;font-variant-east-asian:normal;text-align:center;text-anchor:middle;fill:#2b1100;stroke-width:1.94868"
     x="115.29758"
     y="211.64609"
     id="text503"
     transform="scale(0.93959565,1.0642876)"><tspan
       sodipodi:role="line"
       id="tspan501"
       x="115.29758"
       y="211.64609"
       style="font-style:normal;font-variant:normal;font-weight:normal;font-stretch:normal;font-size:17.8738px;font-family:'Goudy Stout';-inkscape-font-specification:'Goudy Stout, Normal';font-variant-ligatures:normal;font-variant-caps:normal;font-variant-numeric:normal;font-variant-east-asian:normal;stroke-width:1.94868;fill:#2b1100">panetteria </tspan><tspan
       sodipodi:role="line"
       x="115.29758"
       y="233.98834"
       style="font-style:normal;font-variant:normal;font-weight:normal;font-stretch:normal;font-size:17.8738px;font-family:'Goudy Stout';-inkscape-font-specification:'Goudy Stout, Normal';font-variant-ligatures:normal;font-variant-caps:normal;font-variant-numeric:normal;font-variant-east-asian:normal;stroke-width:1.94868;fill:#2b1100"
       id="tspan555">la spiga</tspan></text>
</svg>
