<?xml version="1.0" encoding="UTF-8" standalone="no"?>
<svg
   version="1.2"
   viewBox="0 0 210 297"
   width="210"
   height="297"
   id="svg48"
   sodipodi:docname="Pittogramma.svg"
   inkscape:version="1.2.2 (732a01da63, 2022-12-09)"
   inkscape:export-filename="Pittogramma.pdf"
   inkscape:export-xdpi="300"
   inkscape:export-ydpi="300"
   xmlns:inkscape="http://www.inkscape.org/namespaces/inkscape"
   xmlns:sodipodi="http://sodipodi.sourceforge.net/DTD/sodipodi-0.dtd"
   xmlns="http://www.w3.org/2000/svg"
   xmlns:svg="http://www.w3.org/2000/svg">
  <defs
     id="defs52" />
  <sodipodi:namedview
     id="namedview50"
     pagecolor="#ffffff"
     bordercolor="#000000"
     borderopacity="0.25"
     inkscape:showpageshadow="2"
     inkscape:pageopacity="0.0"
     inkscape:pagecheckerboard="0"
     inkscape:deskcolor="#d1d1d1"
     showgrid="false"
     inkscape:zoom="1.8760948"
     inkscape:cx="-32.514348"
     inkscape:cy="136.98668"
     inkscape:window-width="1920"
     inkscape:window-height="986"
     inkscape:window-x="-11"
     inkscape:window-y="-11"
     inkscape:window-maximized="1"
     inkscape:current-layer="svg48" />
  <style
     id="style2">.a{fill:#a40}.b{fill:#f95}.c{fill:#f60}.d{fill:#ff7f2a}.e{fill:#241c1c}</style>
  <path
     class="a"
     d="m 174.66,196.19713 c 0,4.49616 -1.74054,8.99232 -5.22159,13.06028 -3.37228,4.175 -8.37631,8.02884 -14.68573,11.24038 -6.30943,3.1045 -13.81547,5.67372 -22.08299,7.4936 -8.26752,1.71282 -17.18774,2.67628 -26.21674,2.78334 -8.920219,0.10704 -17.949223,-0.74936 -26.325526,-2.35514 -8.376305,-1.60576 -16.099909,-4.06794 -22.6269,-7.17244 -6.52699,-3.10448 -11.748583,-6.74424 -15.44721,-10.91924 -3.698628,-4.06794 -5.765508,-8.45706 -5.983075,-12.95322 -0.32635,-4.49614 1.087832,-8.9923 4.242545,-13.16732 3.154711,-4.28204 7.832387,-8.1359 13.924245,-11.45448 6.091857,-3.3186 13.489113,-5.99488 21.539068,-7.81476 8.158737,-1.92692 16.970175,-3.10448 25.999173,-3.3186 9.02901,-0.2141 18.05801,0.42822 26.54309,1.92694 8.48509,1.49872 16.31748,3.7468 23.06204,6.74424 6.74455,2.99742 12.18371,6.63718 16.20869,10.70512 3.9162,3.9609 6.30942,8.35002 6.85334,12.84618"
     id="path4"
     style="stroke-width:1.07914" />
  <path
     class="b"
     d="m 69.140324,191.59393 c 0,2.03398 0,4.06794 -0.217567,5.88782 -0.108783,1.92692 -0.435133,3.63974 -0.761482,5.13846 -0.217567,1.39168 -0.6527,2.56924 -1.087832,3.42564 q -0.543915,1.17758 -1.196615,1.28462 -0.652699,0 -1.305398,-1.0705 -0.652699,-1.17758 -1.087832,-3.3186 c -0.326349,-1.39166 -0.652699,-3.1045 -0.761482,-4.92436 -0.217566,-1.92692 -0.32635,-3.85386 -0.32635,-5.88782 0,-2.03398 0.108784,-4.17502 0.217567,-5.99488 0.108783,-1.92694 0.326349,-3.7468 0.652699,-5.24552 0.32635,-1.49872 0.652699,-2.67628 1.087832,-3.5327 q 0.543915,-1.39166 1.305398,-1.49872 0.652699,-0.2141 1.305397,0.85642 0.543916,1.0705 1.087833,3.10448 c 0.326349,1.28462 0.543916,2.99744 0.761482,4.81732 0.217566,1.81986 0.32635,3.85384 0.32635,5.88782"
     id="path6"
     style="stroke-width:1.07914" />
  <path
     class="b"
     d="m 101.12257,191.05867 c 0,2.78334 0,5.45962 -0.21756,8.02886 -0.21757,2.56922 -0.43514,4.8173 -0.76148,6.85128 -0.217569,1.92692 -0.652702,3.5327 -1.087835,4.6032 q -0.543916,1.60578 -1.196614,1.71282 -0.6527,0.10706 -1.305399,-1.39166 c -0.435133,-1.07052 -0.761482,-2.56924 -1.087831,-4.3891 -0.32635,-1.92692 -0.652699,-4.175 -0.761483,-6.74424 -0.217566,-2.46218 -0.326349,-5.24552 -0.326349,-7.9218 0,-2.78334 0,-5.56668 0.217566,-8.1359 0.108783,-2.56924 0.32635,-4.92438 0.6527,-6.95834 0.326348,-2.03398 0.652698,-3.7468 1.087831,-4.92436 q 0.543916,-1.71284 1.305398,-1.92694 0.652699,-0.2141 1.196615,1.17758 c 0.435133,0.8564 0.870265,2.24806 1.196611,4.175 0.32635,1.81986 0.54392,3.9609 0.76148,6.42308 0.21757,2.56922 0.32635,5.24552 0.32635,7.9218"
     id="path8"
     style="stroke-width:1.07914" />
  <path
     class="b"
     d="m 84.8051,191.70097 c 0,2.56924 -0.108783,5.03142 -0.217567,7.4936 -0.217566,2.35514 -0.435132,4.49616 -0.761482,6.31604 -0.326349,1.81986 -0.652698,3.31858 -1.087831,4.28204 q -0.543916,1.49872 -1.196616,1.60578 -0.761481,0 -1.305397,-1.39168 c -0.435133,-0.8564 -0.870266,-2.24806 -1.087832,-4.06794 -0.326349,-1.71282 -0.652699,-3.85386 -0.761482,-6.20898 -0.217566,-2.35514 -0.32635,-4.81732 -0.32635,-7.38654 0,-2.56924 0,-5.13848 0.217567,-7.4936 0.108783,-2.46218 0.326349,-4.60322 0.652698,-6.53014 0.32635,-1.81986 0.652699,-3.42564 1.087832,-4.49616 q 0.543916,-1.60576 1.196616,-1.81986 0.761481,-0.2141 1.305397,1.0705 c 0.435133,0.85642 0.870266,2.14104 1.196615,3.85386 0.326349,1.71282 0.543916,3.7468 0.761482,6.10192 0.217567,2.24808 0.32635,4.71026 0.32635,7.2795"
     id="path10"
     style="stroke-width:1.07914" />
  <path
     class="b"
     d="m 117.44005,191.91507 c 0,2.6763 0,5.45962 -0.21757,7.9218 -0.10878,2.56924 -0.43513,4.81732 -0.76149,6.74424 -0.21755,2.03398 -0.65269,3.5327 -0.97904,4.60322 q -0.6527,1.60576 -1.30539,1.71282 -0.65271,0.10704 -1.3054,-1.39168 c -0.43514,-1.0705 -0.76148,-2.46218 -1.08784,-4.3891 -0.32635,-1.81988 -0.65269,-4.06794 -0.76148,-6.63718 -0.21756,-2.46218 -0.32635,-5.13846 -0.32635,-7.81476 0,-2.78332 0.10879,-5.45962 0.21757,-8.02884 0.10878,-2.56924 0.43513,-4.92436 0.65269,-6.95834 0.32636,-1.92692 0.65271,-3.5327 1.08784,-4.71026 q 0.65269,-1.81988 1.3054,-2.03398 0.65269,-0.2141 1.3054,1.17756 c 0.32634,0.96346 0.76148,2.35514 1.08783,4.06796 0.32634,1.81986 0.54391,4.06794 0.76148,6.53014 0.21757,2.46218 0.32635,5.0314 0.32635,7.81474"
     id="path12"
     style="stroke-width:1.07914" />
  <path
     class="b"
     d="m 133.97509,191.70097 c 0,2.46218 -0.10878,4.81732 -0.21757,7.0654 -0.21756,2.24808 -0.43513,4.3891 -0.76147,6.10192 -0.32636,1.71282 -0.65271,3.1045 -1.08784,4.06796 q -0.54392,1.39166 -1.3054,1.49872 -0.65269,0 -1.19661,-1.28462 c -0.43514,-0.85642 -0.87027,-2.14102 -1.19662,-3.85386 -0.32635,-1.71282 -0.54391,-3.63974 -0.76148,-5.88782 -0.10878,-2.24808 -0.21757,-4.6032 -0.21757,-7.06538 0,-2.46218 0,-4.81732 0.21757,-7.0654 0.10878,-2.35512 0.32635,-4.3891 0.6527,-6.20898 0.32635,-1.81986 0.6527,-3.21154 1.08783,-4.28206 q 0.54392,-1.60576 1.19661,-1.71282 0.6527,-0.2141 1.3054,0.96346 c 0.43513,0.85642 0.87027,2.03398 1.19662,3.7468 0.32634,1.60578 0.54391,3.5327 0.76148,5.67372 0.21757,2.24808 0.32635,4.60322 0.32635,6.95834"
     id="path14"
     style="stroke-width:1.07914" />
  <path
     class="b"
     d="m 148.1169,192.02213 c 0,1.92692 -0.10878,3.7468 -0.32635,5.56668 -0.10879,1.71282 -0.32634,3.31858 -0.6527,4.6032 q -0.54392,2.03398 -1.08783,3.21154 -0.65269,1.17756 -1.3054,1.17756 -0.65269,0 -1.30539,-0.96346 -0.65271,-1.0705 -1.08783,-2.99744 c -0.32635,-1.39166 -0.54392,-2.89038 -0.76149,-4.6032 -0.21756,-1.71282 -0.32634,-3.63976 -0.32634,-5.45962 0,-1.92692 0.10878,-3.85386 0.21755,-5.56668 0.21757,-1.81986 0.43514,-3.42564 0.65271,-4.8173 q 0.54391,-2.03398 1.08783,-3.3186 0.6527,-1.17756 1.30539,-1.39166 0.65271,-0.10706 1.3054,0.8564 0.65271,0.96346 1.08783,2.78334 c 0.32636,1.28462 0.65271,2.78334 0.76148,4.49616 0.21757,1.71282 0.32636,3.5327 0.43514,5.45962"
     id="path16"
     style="stroke-width:1.07914" />
  <path
     id="path28"
     class="d"
     d="m 125.08883,160.02192 -5.43916,-0.74936 c 0,0 -0.54391,-0.2141 3.91619,-29.65324 z m -5.98307,-98.27317 c 1.30539,0 2.93714,1.070514 3.80741,2.890386 0.97905,2.033976 1.3054,5.031414 0.87026,7.7077 -1.63174,0.85641 -3.37228,0 -4.46011,-2.24808 l -0.21756,-0.321154 c -0.76149,-1.712822 -1.41418,-3.425644 -1.3054,-5.45962 0.10878,-1.391668 -1.84931,-9.741674 -2.28445,-11.561548 0.32635,0.535256 3.15471,8.992317 3.58985,8.992316 z m 11.20467,2.676284 c 0.10878,2.033976 -0.54393,3.85385 -1.30541,5.45962 l -0.21756,0.428206 c -1.08784,2.141026 -2.82836,2.997438 -4.46011,2.141026 -0.43513,-2.676284 -0.10878,-5.56667 0.97905,-7.707698 0.76148,-1.712822 2.39322,-2.890388 3.69862,-2.890388 0.43514,0 3.2635,-8.457058 3.58985,-8.992314 -0.43513,1.819872 -2.39323,10.16988 -2.28444,11.561548 z m -11.96616,7.81475 c 1.41419,0 3.2635,1.391668 4.24255,3.639746 1.19661,2.569234 1.63175,6.316034 1.08783,9.634626 -1.84931,0.963462 -3.80741,-0.107052 -5.11281,-2.783336 l -0.21757,-0.428206 c -0.87026,-2.141026 -1.63174,-4.282056 -1.41417,-6.85129 0.10878,-1.71282 -2.17567,-12.096804 -2.71959,-14.344882 0.54392,0.642308 3.69863,11.133342 4.13376,11.133342 z m 12.72763,3.425644 c 0.10879,2.569232 -0.65269,4.710262 -1.52295,6.744238 l -0.21757,0.535258 c -1.19662,2.676284 -3.15472,3.746798 -5.00403,2.783334 -0.54392,-3.318592 -0.21757,-7.065392 0.97905,-9.741676 0.97905,-2.141028 2.82836,-3.532696 4.24255,-3.532696 0.54391,0 3.69862,-10.491034 4.13376,-11.240394 -0.54393,2.35513 -2.71959,12.739114 -2.61081,14.451936 z m -12.83641,9.848728 c 1.41418,0 3.26349,1.391668 4.35133,3.639746 1.19661,2.676286 1.52296,6.316032 0.97904,9.741676 -1.84931,0.963462 -3.8074,-0.107052 -5.1128,-2.783336 l -0.32635,-0.535256 c -0.87027,-2.033976 -1.63175,-4.282056 -1.41418,-6.851288 0.10878,-1.712822 -2.17567,-12.20386 -2.71958,-14.451938 0.43513,0.642308 3.69863,11.240396 4.24254,11.240396 z m 12.9452,3.425644 c 0.10878,2.569232 -0.6527,4.71026 -1.52296,6.851288 l -0.21757,0.428206 c -1.3054,2.783336 -3.2635,3.853846 -5.11281,2.783336 -0.6527,-3.318594 -0.21757,-7.065392 0.97905,-9.741676 0.97905,-2.141028 2.93715,-3.532696 4.35133,-3.532696 0.43513,0 3.80741,-10.598088 4.24253,-11.240396 -0.54391,2.24808 -2.82836,12.739116 -2.71957,14.451938 z m -13.38033,9.741674 c 1.63174,0 3.58984,1.605776 4.67767,4.175006 1.3054,3.21154 1.63175,7.4936 1.08783,11.4545 -1.95809,1.17756 -4.13376,-0.10706 -5.43915,-3.21154 l -0.32635,-0.6423 c -0.87026,-2.35514 -1.74053,-4.92438 -1.52297,-8.02887 0.10879,-1.92692 -2.28444,-14.34488 -2.93714,-17.021166 0.54392,0.856412 4.02497,13.27437 4.46011,13.27437 z m 13.81547,3.960906 c 0.10878,3.10448 -0.65271,5.67372 -1.63176,8.02886 l -0.21757,0.6423 c -1.41417,3.1045 -3.48105,4.3891 -5.43915,3.21154 -0.6527,-3.9609 -0.21757,-8.24296 1.08784,-11.4545 0.97904,-2.56923 3.04592,-4.175002 4.56888,-4.175002 0.54392,0 4.02498,-12.41796 4.46012,-13.27437 -0.54393,2.676284 -2.93715,15.094242 -2.82836,17.021172 z m -14.35939,10.27694 c 1.63175,0 3.80742,1.71282 4.89525,4.49614 1.41417,3.3186 1.84931,7.92182 1.19662,12.09682 -2.17567,1.17756 -4.35133,-0.10706 -5.8743,-3.5327 l -0.21757,-0.6423 c -0.97905,-2.4622 -1.84931,-5.24552 -1.74053,-8.45706 0.10879,-2.03398 -2.39323,-15.09426 -3.04593,-17.87759 0.54391,0.85641 4.24255,13.91669 4.78646,13.91669 z m 14.68573,4.175 c 0.10878,3.21154 -0.76148,5.99488 -1.74053,8.45706 l -0.21757,0.6423 c -1.52296,3.42564 -3.80741,4.71026 -5.87429,3.5327 -0.6527,-4.175 -0.21756,-8.77822 1.19662,-12.0968 1.08783,-2.78334 3.2635,-4.49616 4.89524,-4.49616 0.54391,0 4.24255,-13.06028 4.78646,-13.916688 -0.6527,2.783338 -3.26349,15.843608 -3.04593,17.877588 z"
     style="stroke-width:1.07914" />
  <path
     class="d"
     d=""
     id="path30" />
  <path
     id="path42"
     class="d"
     d="m 85.951181,129.08405 c 4.460109,29.33208 3.916193,29.65324 3.916193,29.65324 l -5.547941,0.6423 z m 8.158738,-75.364158 c -0.435133,1.819874 -2.39323,10.16988 -2.284447,11.561548 0.108782,2.033976 -0.543916,3.746798 -1.305398,5.45962 l -0.217567,0.428206 c -1.087831,2.141028 -2.828362,2.997438 -4.46011,2.141028 -0.435133,-2.676286 -0.108783,-5.566672 0.870266,-7.7077 0.870265,-1.819872 2.502013,-2.890386 3.807411,-2.890386 0.435132,0 3.263495,-8.45706 3.589845,-8.992316 z m -17.078957,0.107052 c 0.32635,0.535256 3.154711,8.992314 3.589844,8.992314 1.305399,0 2.937145,1.177566 3.807411,2.890388 0.979047,2.141028 1.305397,5.138466 0.870264,7.81475 -1.631747,0.74936 -3.372276,-0.107052 -4.460109,-2.248078 l -0.217566,-0.428206 c -0.761482,-1.60577 -1.414181,-3.425644 -1.305398,-5.45962 0.108784,-1.284616 -1.849313,-9.741676 -2.284446,-11.561548 z M 95.415316,62.0699 c -0.543916,2.248078 -2.828362,12.739112 -2.719579,14.344884 0.217566,2.569232 -0.543916,4.81731 -1.414181,6.851286 l -0.217566,0.428206 c -1.305399,2.783336 -3.263496,3.746798 -5.112809,2.783336 -0.543917,-3.318592 -0.108784,-6.95834 1.087832,-9.634624 0.979048,-2.248078 2.828361,-3.639746 4.242543,-3.639746 0.435133,0 3.698627,-10.491034 4.13376,-11.133342 z M 75.94313,62.17695 c 0.435133,0.74936 3.589845,11.240394 4.133761,11.240394 1.414181,0 3.263494,1.391668 4.242542,3.639748 1.196615,2.569232 1.522964,6.31603 0.979048,9.634622 -1.849313,0.963464 -3.698626,-0.10705 -5.004025,-2.783334 L 80.076891,83.373122 C 79.206625,81.339146 78.445143,79.198118 78.553926,76.628886 78.662709,74.916064 76.487046,64.53208 75.94313,62.17695 Z m 19.689753,13.060268 c -0.543916,2.248078 -2.828363,12.739114 -2.71958,14.451936 0.217567,2.569232 -0.543916,4.81731 -1.41418,6.851288 l -0.32635,0.535256 c -1.305399,2.676284 -3.263496,3.746802 -5.112809,2.783336 -0.543916,-3.425644 -0.217567,-7.06539 0.979049,-9.741676 1.087831,-2.248078 2.937145,-3.639746 4.46011,-3.639746 0.435131,0 3.698627,-10.598086 4.13376,-11.240394 z m -19.90732,0.214102 c 0.435133,0.642308 3.807412,11.240394 4.242545,11.240394 1.414181,0 3.372277,1.391668 4.351325,3.639748 1.196615,2.569232 1.631748,6.31603 0.979048,9.741678 -1.849313,0.96346 -3.807409,-0.107056 -5.112808,-2.89039 L 79.968108,96.754544 C 79.097842,94.720568 78.336359,92.472488 78.445143,89.903256 78.553926,88.190434 76.269479,77.6994 75.725563,75.45132 Z m 20.560019,10.91924 c -0.652699,2.783336 -3.045929,15.09424 -2.937146,17.02117 0.217567,3.10449 -0.652699,5.67372 -1.522964,8.02886 l -0.217566,0.6423 c -1.414182,3.21154 -3.589845,4.3891 -5.547942,3.3186 -0.543916,-3.9609 -0.217567,-8.35002 1.087831,-11.4545 1.087832,-2.56924 3.045929,-4.28206 4.677677,-4.28206 0.435132,0 3.916194,-12.417958 4.46011,-13.27437 z m -21.103934,0.214104 c 0.435132,0.85641 3.916194,13.27437 4.46011,13.27437 1.522964,0 3.589844,1.605766 4.568892,4.282066 1.305398,3.10447 1.740531,7.49359 1.087831,11.34743 -1.958096,1.17756 -4.024976,0 -5.439157,-3.21154 l -0.217566,-0.6423 c -0.979049,-2.35514 -1.740531,-4.92435 -1.631748,-8.02886 0.108783,-1.92692 -2.284447,-14.23783 -2.828362,-17.021166 z m 21.974199,13.38142 c -0.652699,2.783346 -3.154711,15.843606 -3.045928,17.984626 0.108783,3.1045 -0.6527,5.88784 -1.740532,8.45706 l -0.217566,0.53526 c -1.522964,3.42564 -3.698627,4.71026 -5.874291,3.5327 -0.652699,-4.175 -0.217566,-8.77822 1.196615,-12.0968 1.087832,-2.6763 3.263495,-4.49616 4.895242,-4.49616 0.543916,0 4.242545,-13.06027 4.78646,-13.916686 z m -22.518115,0.214106 c 0.543916,0.85641 4.242544,13.91668 4.78646,13.91668 1.631747,0 3.80741,1.81986 4.895241,4.49616 1.414181,3.31858 1.849314,7.9218 1.196615,12.0968 -2.06688,1.17756 -4.351326,-0.10706 -5.87429,-3.5327 l -0.217566,-0.53526 c -0.979049,-2.56922 -1.849314,-5.35256 -1.631749,-8.45706 0.108784,-2.14102 -2.502013,-15.20128 -3.154711,-17.98462 z"
     style="stroke-width:1.07914" />
  <path
     class="d"
     d=""
     id="path44" />
</svg>
